<svg width="256" height="254" viewBox="0 0 256 254" fill="none" xmlns="http://www.w3.org/2000/svg">
<g id="ducky-duck">
<g id="stroke" transform="translate(9.6 8.53333) scale(1.06667)">
<mask id="path-1-outside-1" maskUnits="userSpaceOnUse" x="-9" y="-8" width="240" height="238" fill="black">
<rect fill="white" x="-9" y="-8" width="240" height="238"/>
<path d="M30.7054 58.0566L91.5632 0L167.045 30.7629L169.156 94.0232L132.125 126.875L189.063 154.817L213.5 132.125L224 178.5L189.181 224H105.617L53.3885 174.222L71.7631 126.674L64.4452 114.444L23.8707 134.275L15.3778 131.163L35.2281 97.6958L2.91474 78.1565L0 66.6779L39.3514 72.5061L30.7054 58.0566Z"/>
</mask>
<path d="M189.181 154.875L187.86 157.568L189.719 158.48L191.231 157.066L189.181 154.875ZM189.063 154.817L190.384 152.124L188.533 151.215L187.022 152.618L189.063 154.817ZM191.231 157.066L215.55 134.316L211.451 129.934L187.132 152.684L191.231 157.066ZM187.022 152.618L186.959 152.677L191.041 157.074L191.104 157.015L187.022 152.618ZM190.503 152.182L190.384 152.124L187.741 157.51L187.86 157.568L190.503 152.182ZM30.7054 58.0566L26.5639 53.7153L23.0955 57.024L25.5568 61.1374L30.7054 58.0566ZM91.5632 0L93.8277 -5.55627L90.2315 -7.0219L87.4217 -4.34138L91.5632 0ZM167.045 30.7629L173.042 30.5628L172.912 26.6748L169.309 25.2066L167.045 30.7629ZM169.156 94.0232L173.137 98.5115L175.246 96.6407L175.152 93.8231L169.156 94.0232ZM132.125 126.875L128.143 122.387L121.453 128.322L129.482 132.261L132.125 126.875ZM213.5 132.125L219.352 130.8L217.051 120.639L209.417 127.728L213.5 132.125ZM224 178.5L228.765 182.146L230.472 179.915L229.852 177.175L224 178.5ZM189.181 224V230H192.145L193.946 227.646L189.181 224ZM105.617 224L101.477 228.343L103.215 230H105.617V224ZM53.3885 174.222L47.7918 172.059L46.3466 175.799L49.249 178.566L53.3885 174.222ZM71.7631 126.674L77.3597 128.836L78.4151 126.105L76.9118 123.593L71.7631 126.674ZM0 66.6779L0.87905 60.7426L-8.03269 59.4227L-5.81544 68.1546L0 66.6779ZM2.91474 78.1565L-2.9007 79.6332L-2.29519 82.0178L-0.189883 83.2909L2.91474 78.1565ZM35.2281 97.6958L40.3887 100.757L43.4237 95.6398L38.3328 92.5615L35.2281 97.6958ZM15.3778 131.163L10.2172 128.102L6.53366 134.312L13.3135 136.796L15.3778 131.163ZM23.8707 134.275L21.8064 139.908L24.2077 140.788L26.5054 139.665L23.8707 134.275ZM189.063 154.817L186.42 160.203L190.123 162.021L193.146 159.214L189.063 154.817ZM64.4452 114.444L69.5939 111.363L66.7634 106.633L61.8106 109.053L64.4452 114.444ZM39.3514 72.5061L38.4723 78.4413L51.0056 80.2976L44.5001 69.4253L39.3514 72.5061ZM34.847 62.398L95.7048 4.34138L87.4217 -4.34138L26.5639 53.7153L34.847 62.398ZM89.2987 5.55627L164.78 36.3192L169.309 25.2066L93.8277 -5.55627L89.2987 5.55627ZM161.048 30.963L163.159 94.2233L175.152 93.8231L173.042 30.5628L161.048 30.963ZM165.174 89.5349L128.143 122.387L136.107 131.363L173.137 98.5115L165.174 89.5349ZM207.648 133.45L218.148 179.825L229.852 177.175L219.352 130.8L207.648 133.45ZM219.235 174.854L184.416 220.354L193.946 227.646L228.765 182.146L219.235 174.854ZM189.181 218H105.617V230H189.181V218ZM109.756 219.657L57.528 169.879L49.249 178.566L101.477 228.343L109.756 219.657ZM58.9851 176.385L77.3597 128.836L66.1664 124.511L47.7918 172.059L58.9851 176.385ZM-5.81544 68.1546L-2.9007 79.6332L8.73018 76.6798L5.81544 65.2012L-5.81544 68.1546ZM-0.189883 83.2909L32.1235 102.83L38.3328 92.5615L6.01937 73.0222L-0.189883 83.2909ZM30.0676 94.6349L10.2172 128.102L20.5383 134.223L40.3887 100.757L30.0676 94.6349ZM13.3135 136.796L21.8064 139.908L25.935 128.641L17.4421 125.529L13.3135 136.796ZM26.5054 139.665L67.0799 119.834L61.8106 109.053L21.2361 128.884L26.5054 139.665ZM40.2304 66.5708L0.87905 60.7426L-0.87905 72.6131L38.4723 78.4413L40.2304 66.5708ZM209.417 127.728L184.98 150.42L193.146 159.214L217.583 136.522L209.417 127.728ZM129.482 132.261L186.42 160.203L191.706 149.43L134.768 121.489L129.482 132.261ZM76.9118 123.593L69.5939 111.363L59.2966 117.525L66.6144 129.754L76.9118 123.593ZM44.5001 69.4253L35.8541 54.9759L25.5568 61.1374L34.2027 75.5868L44.5001 69.4253Z" fill="#232323" mask="url(#path-1-outside-1)"/>
</g>
<g id="Ducky Duck">
<path id="body" d="M41.0576 126.674L0 58.0566L60.8578 0L136.34 30.7629L138.45 94.0232L101.42 126.875L158.476 154.875L182.795 132.125L193.295 178.5L158.476 224H74.9111L22.683 174.222L41.0576 126.674Z" transform="translate(42.3525 8.53333) scale(1.06667)" fill="#FFD600"/>
<g id="mouth-open">
<path id="mouth open 1" d="M52.013 7.70347L0 1.5569e-06L2.91474 11.4787L35.2281 31.018L15.3778 64.4847L23.8707 67.5967L75.3309 42.4456L52.013 7.70347Z" transform="translate(9.6 79.6564) scale(1.06667)" fill="#FF9100"/>
<path id="mouth open detail 1" d="M31.3586 6.93823L-7.66817e-07 33.4668L19.8504 3.11379e-06L31.3586 6.93823Z" transform="translate(26.0031 112.743) scale(1.06667)" fill="#FF6D00"/>
</g>
<g id="eye">
<path id="eye 1" d="M3.41728 1.5569e-06L-1.53363e-06 31.6812L29.5997 28.161L28.1423 4.28538L3.41728 1.5569e-06Z" transform="translate(108.071 76.3926) scale(1.06667)" fill="#232323"/>
<path id="eye reflection 1" d="M5.92999 0.408134L-6.13454e-06 1.5569e-06L5.02541 6.88721L5.92999 0.408134Z" transform="translate(129.03 83.466) scale(1.06667)" fill="#FFF9C4"/>
</g>
<path id="wing 1" d="M0 32.5952L10.4964 0L82.6554 20.8956L76.2744 36.6027L21.0297 46.8032L0 32.5952Z" transform="matrix(1.04889 0.193927 -0.186219 1.05029 124.881 161.1)" fill="#FFC400"/>
<g id="shadows">
<path id="shadow tail 1" d="M0 22.75L14 28.875L24.5 0L0 22.75Z" transform="translate(211.2 149.467) scale(1.06667)" fill="#FFC400"/>
<path id="shadow chest 1" d="M41.7824 9.62254L0 47.5485L18.3745 0L41.7824 9.62254Z" transform="translate(66.5478 143.652) scale(1.06667)" fill="#FFC400"/>
</g>
</g>
</g>
</svg>
