<?xml version="1.0" standalone="no"?>
<!DOCTYPE svg PUBLIC "-//W3C//DTD SVG 20010904//EN"
 "http://www.w3.org/TR/2001/REC-SVG-20010904/DTD/svg10.dtd">
<svg version="1.0" xmlns="http://www.w3.org/2000/svg"
 width="260.000000pt" height="260.000000pt" viewBox="0 0 260.000000 260.000000"
 preserveAspectRatio="xMidYMid meet">
<metadata>
Created by potrace 1.11, written by Peter Selinger 2001-2013
</metadata>
<g transform="translate(0.000000,260.000000) scale(0.100000,-0.100000)"
fill="#000000" stroke="none">
<path d="M1018 2557 c-25 -23 -126 -118 -223 -212 -98 -93 -196 -187 -219
-209 -80 -75 -216 -209 -216 -213 0 -2 20 -37 45 -77 25 -41 45 -77 45 -80 0
-6 -44 -1 -100 10 -14 2 -47 7 -75 9 -27 3 -57 7 -65 10 -8 2 -40 7 -70 10
-30 4 -74 10 -98 15 -31 5 -42 4 -39 -4 2 -6 10 -36 17 -67 l12 -56 106 -64
c58 -35 122 -74 142 -85 19 -12 56 -34 82 -50 l46 -29 -34 -55 c-18 -30 -37
-62 -41 -70 -5 -9 -33 -57 -63 -108 -30 -51 -63 -106 -72 -122 -19 -32 -17
-34 40 -54 45 -16 12 -29 335 131 93 46 170 83 172 83 2 0 22 -31 44 -68 48
-79 51 -56 -39 -287 -34 -88 -73 -187 -85 -220 -13 -33 -28 -72 -34 -88 -12
-31 -25 -17 255 -283 87 -84 200 -190 249 -238 l90 -86 486 0 485 0 202 264
201 264 -39 178 c-63 283 -78 345 -83 351 -5 5 -74 -56 -221 -198 l-59 -57
-96 47 c-53 26 -201 99 -329 161 -128 63 -231 117 -230 120 2 4 46 44 98 91
52 46 97 86 100 89 3 3 43 39 90 80 110 96 142 129 136 138 -2 4 -7 97 -10
207 -13 406 -17 500 -24 507 -6 6 -625 260 -818 336 l-51 21 -45 -42z m437
-257 c193 -78 352 -144 354 -146 2 -2 5 -45 6 -96 2 -51 6 -183 10 -293 l6
-201 -62 -54 c-34 -30 -71 -62 -81 -71 -10 -9 -50 -45 -88 -79 -38 -34 -79
-70 -90 -80 -11 -10 -52 -46 -91 -81 -39 -35 -80 -70 -90 -77 -11 -7 -19 -17
-19 -22 0 -5 33 -24 73 -43 39 -19 242 -119 450 -221 207 -102 380 -186 384
-186 3 0 28 21 55 46 28 26 56 44 66 42 12 -2 22 9 35 36 10 22 21 35 26 30 4
-5 20 -62 34 -127 l27 -117 -112 -148 c-62 -81 -117 -152 -123 -159 -5 -6 -28
-37 -50 -67 l-40 -55 -430 0 -430 0 -116 112 c-64 61 -177 170 -252 240 l-135
128 30 79 c32 83 37 89 258 288 41 37 43 41 25 48 -70 26 -125 55 -124 66 0 7
4 22 8 32 5 14 -7 44 -46 108 -29 49 -53 93 -53 99 0 5 -31 56 -68 112 -38 56
-71 107 -73 112 -2 6 -48 83 -101 172 -54 88 -98 166 -98 173 0 7 20 31 43 54
24 22 118 111 208 198 90 86 197 188 238 227 41 38 77 69 80 67 3 -2 164 -68
356 -146z"/>
<path d="M1110 1843 c0 -10 -5 -49 -9 -88 -5 -38 -12 -99 -16 -135 -4 -36 -8
-79 -10 -97 -3 -28 -1 -31 18 -28 34 5 92 13 210 26 106 12 110 13 109 49 0
51 -14 236 -18 239 -2 3 -15 6 -27 8 -12 2 -71 12 -132 23 -132 24 -125 24
-125 3z"/>
<path d="M1367 903 c-6 -10 -50 -92 -122 -227 l-58 -109 107 -104 107 -103
324 0 324 0 47 72 c25 40 48 78 51 84 3 9 -126 78 -376 204 -210 104 -386 190
-391 190 -5 0 -11 -3 -13 -7z"/>
</g>
</svg>
